<mxfile host="app.diagrams.net" modified="2021-03-21T07:56:44.028Z" agent="5.0 (Windows)" etag="PpxF5D-GALoSHviczJ7O" version="14.4.9" type="github">
  <diagram id="M0jLvkhvh299AZz5LMJN" name="Page-1">
    <mxGraphModel dx="982" dy="1717" grid="1" gridSize="10" guides="1" tooltips="1" connect="1" arrows="1" fold="1" page="1" pageScale="1" pageWidth="826" pageHeight="1169" math="0" shadow="0">
      <root>
        <mxCell id="0" />
        <mxCell id="1" parent="0" />
        <mxCell id="_sq7ASWBBYEvkGENBaiG-1" value="Arduino" style="shadow=0;dashed=0;align=center;fillColor=#ffffff;html=1;strokeWidth=1;shape=mxgraph.electrical.logic_gates.dual_inline_ic;labelNames=D13,3V3,REF,A0,A1,A2,A3,A4,A5,A6,A7,5V,RST,GND,VIN,TX,RX,RST,GND,D2,D3,D4,D5,D6,D7,D8,D9,D10,D11,D12;pinSpacing=20;labelCount=30;pinLabelType=cust;" parent="1" vertex="1">
          <mxGeometry x="57.5" y="170" width="120" height="310" as="geometry" />
        </mxCell>
        <mxCell id="_sq7ASWBBYEvkGENBaiG-6" value="" style="verticalLabelPosition=bottom;shadow=0;dashed=0;align=center;fillColor=#ffffff;html=1;verticalAlign=top;strokeWidth=1;shape=mxgraph.electrical.mosfets1.n-channel_mosfet_1;" parent="1" vertex="1">
          <mxGeometry x="267.5" y="207.83" width="95" height="100" as="geometry" />
        </mxCell>
        <mxCell id="_sq7ASWBBYEvkGENBaiG-27" value="" style="endArrow=none;html=1;fontSize=11;exitX=1;exitY=0;exitDx=0;exitDy=230;exitPerimeter=0;entryX=0.7;entryY=1;entryDx=0;entryDy=0;entryPerimeter=0;strokeColor=#0000FF;" parent="1" source="_sq7ASWBBYEvkGENBaiG-1" target="_sq7ASWBBYEvkGENBaiG-6" edge="1">
          <mxGeometry width="50" height="50" relative="1" as="geometry">
            <mxPoint x="57.5" y="550" as="sourcePoint" />
            <mxPoint x="337.5" y="400" as="targetPoint" />
            <Array as="points">
              <mxPoint x="333.5" y="400" />
            </Array>
          </mxGeometry>
        </mxCell>
        <mxCell id="_sq7ASWBBYEvkGENBaiG-20" value="" style="group;direction=west;flipH=0;flipV=0;" parent="1" vertex="1" connectable="0">
          <mxGeometry x="202.5" y="310" width="40" height="100" as="geometry" />
        </mxCell>
        <mxCell id="_sq7ASWBBYEvkGENBaiG-21" value="MAX 6675" style="rounded=0;whiteSpace=wrap;html=1;horizontal=0;align=center;" parent="_sq7ASWBBYEvkGENBaiG-20" vertex="1">
          <mxGeometry x="10" width="30" height="100" as="geometry" />
        </mxCell>
        <mxCell id="_sq7ASWBBYEvkGENBaiG-22" value="" style="endArrow=none;html=1;" parent="_sq7ASWBBYEvkGENBaiG-20" edge="1">
          <mxGeometry width="50" height="50" relative="1" as="geometry">
            <mxPoint y="90" as="sourcePoint" />
            <mxPoint x="10" y="90" as="targetPoint" />
          </mxGeometry>
        </mxCell>
        <mxCell id="_sq7ASWBBYEvkGENBaiG-23" value="" style="endArrow=none;html=1;" parent="_sq7ASWBBYEvkGENBaiG-20" edge="1">
          <mxGeometry width="50" height="50" relative="1" as="geometry">
            <mxPoint y="70" as="sourcePoint" />
            <mxPoint x="10" y="70" as="targetPoint" />
          </mxGeometry>
        </mxCell>
        <mxCell id="_sq7ASWBBYEvkGENBaiG-24" value="" style="endArrow=none;html=1;" parent="_sq7ASWBBYEvkGENBaiG-20" edge="1">
          <mxGeometry width="50" height="50" relative="1" as="geometry">
            <mxPoint y="50.00000000000003" as="sourcePoint" />
            <mxPoint x="10" y="50.00000000000003" as="targetPoint" />
          </mxGeometry>
        </mxCell>
        <mxCell id="_sq7ASWBBYEvkGENBaiG-25" value="" style="endArrow=none;html=1;" parent="_sq7ASWBBYEvkGENBaiG-20" edge="1">
          <mxGeometry width="50" height="50" relative="1" as="geometry">
            <mxPoint y="30.00000000000003" as="sourcePoint" />
            <mxPoint x="10" y="30.00000000000003" as="targetPoint" />
          </mxGeometry>
        </mxCell>
        <mxCell id="_sq7ASWBBYEvkGENBaiG-26" value="" style="endArrow=none;html=1;" parent="_sq7ASWBBYEvkGENBaiG-20" edge="1">
          <mxGeometry width="50" height="50" relative="1" as="geometry">
            <mxPoint y="10.000000000000028" as="sourcePoint" />
            <mxPoint x="10" y="10.000000000000028" as="targetPoint" />
          </mxGeometry>
        </mxCell>
        <mxCell id="_sq7ASWBBYEvkGENBaiG-76" value="" style="endArrow=none;html=1;strokeColor=#000000;fontSize=11;fontColor=#000000;exitX=1;exitY=0;exitDx=0;exitDy=70;exitPerimeter=0;" parent="_sq7ASWBBYEvkGENBaiG-20" edge="1">
          <mxGeometry width="50" height="50" relative="1" as="geometry">
            <mxPoint x="-32.5" y="70" as="sourcePoint" />
            <mxPoint y="70" as="targetPoint" />
          </mxGeometry>
        </mxCell>
        <mxCell id="_sq7ASWBBYEvkGENBaiG-29" value="" style="endArrow=none;html=1;fontSize=11;entryX=0;entryY=0;entryDx=0;entryDy=230;entryPerimeter=0;fontColor=#FF0000;strokeColor=#FF0000;" parent="1" target="_sq7ASWBBYEvkGENBaiG-1" edge="1">
          <mxGeometry width="50" height="50" relative="1" as="geometry">
            <mxPoint x="250" y="490" as="sourcePoint" />
            <mxPoint x="107.5" y="500" as="targetPoint" />
            <Array as="points">
              <mxPoint x="220" y="490" />
              <mxPoint x="197.5" y="490" />
              <mxPoint x="27.5" y="490" />
              <mxPoint x="28" y="400" />
            </Array>
          </mxGeometry>
        </mxCell>
        <mxCell id="_sq7ASWBBYEvkGENBaiG-19" value="" style="group" parent="1" vertex="1" connectable="0">
          <mxGeometry x="202.5" y="170" width="40" height="100" as="geometry" />
        </mxCell>
        <mxCell id="_sq7ASWBBYEvkGENBaiG-9" value="MAX 6675" style="rounded=0;whiteSpace=wrap;html=1;horizontal=0;align=center;" parent="_sq7ASWBBYEvkGENBaiG-19" vertex="1">
          <mxGeometry x="10" width="30" height="100" as="geometry" />
        </mxCell>
        <mxCell id="_sq7ASWBBYEvkGENBaiG-10" value="" style="endArrow=none;html=1;" parent="_sq7ASWBBYEvkGENBaiG-19" edge="1">
          <mxGeometry width="50" height="50" relative="1" as="geometry">
            <mxPoint y="90" as="sourcePoint" />
            <mxPoint x="10" y="90" as="targetPoint" />
          </mxGeometry>
        </mxCell>
        <mxCell id="_sq7ASWBBYEvkGENBaiG-12" value="" style="endArrow=none;html=1;" parent="_sq7ASWBBYEvkGENBaiG-19" edge="1">
          <mxGeometry width="50" height="50" relative="1" as="geometry">
            <mxPoint y="70" as="sourcePoint" />
            <mxPoint x="10" y="70" as="targetPoint" />
          </mxGeometry>
        </mxCell>
        <mxCell id="_sq7ASWBBYEvkGENBaiG-13" value="" style="endArrow=none;html=1;" parent="_sq7ASWBBYEvkGENBaiG-19" edge="1">
          <mxGeometry width="50" height="50" relative="1" as="geometry">
            <mxPoint y="50.00000000000003" as="sourcePoint" />
            <mxPoint x="10" y="50.00000000000003" as="targetPoint" />
          </mxGeometry>
        </mxCell>
        <mxCell id="_sq7ASWBBYEvkGENBaiG-14" value="" style="endArrow=none;html=1;" parent="_sq7ASWBBYEvkGENBaiG-19" edge="1">
          <mxGeometry width="50" height="50" relative="1" as="geometry">
            <mxPoint y="30.00000000000003" as="sourcePoint" />
            <mxPoint x="10" y="30.00000000000003" as="targetPoint" />
          </mxGeometry>
        </mxCell>
        <mxCell id="_sq7ASWBBYEvkGENBaiG-15" value="" style="endArrow=none;html=1;" parent="_sq7ASWBBYEvkGENBaiG-19" edge="1">
          <mxGeometry width="50" height="50" relative="1" as="geometry">
            <mxPoint y="10.000000000000028" as="sourcePoint" />
            <mxPoint x="10" y="10.000000000000028" as="targetPoint" />
          </mxGeometry>
        </mxCell>
        <mxCell id="_sq7ASWBBYEvkGENBaiG-33" value="" style="endArrow=none;html=1;fontSize=11;exitX=1;exitY=0;exitDx=0;exitDy=170;exitPerimeter=0;" parent="1" source="_sq7ASWBBYEvkGENBaiG-1" edge="1">
          <mxGeometry width="50" height="50" relative="1" as="geometry">
            <mxPoint x="27.5" y="560" as="sourcePoint" />
            <mxPoint x="207.5" y="340" as="targetPoint" />
          </mxGeometry>
        </mxCell>
        <mxCell id="_sq7ASWBBYEvkGENBaiG-35" value="" style="endArrow=none;html=1;fontSize=11;exitX=1;exitY=0;exitDx=0;exitDy=150;exitPerimeter=0;" parent="1" source="_sq7ASWBBYEvkGENBaiG-1" edge="1">
          <mxGeometry width="50" height="50" relative="1" as="geometry">
            <mxPoint x="27.5" y="630" as="sourcePoint" />
            <mxPoint x="207.5" y="320" as="targetPoint" />
          </mxGeometry>
        </mxCell>
        <mxCell id="nAN5A21IbzPLfW9n5xh4-4" style="edgeStyle=orthogonalEdgeStyle;rounded=0;orthogonalLoop=1;jettySize=auto;html=1;exitX=0.5;exitY=0;exitDx=0;exitDy=0;exitPerimeter=0;entryX=0;entryY=0.845;entryDx=0;entryDy=0;entryPerimeter=0;endArrow=none;endFill=0;" parent="1" source="_sq7ASWBBYEvkGENBaiG-37" target="nAN5A21IbzPLfW9n5xh4-1" edge="1">
          <mxGeometry relative="1" as="geometry" />
        </mxCell>
        <mxCell id="_sq7ASWBBYEvkGENBaiG-37" value="230v" style="pointerEvents=1;verticalLabelPosition=bottom;shadow=0;dashed=0;align=right;fillColor=#ffffff;html=1;verticalAlign=top;strokeWidth=1;shape=mxgraph.electrical.signal_sources.ac_source;fontSize=11;" parent="1" vertex="1">
          <mxGeometry x="415" y="-50.5" width="60" height="60" as="geometry" />
        </mxCell>
        <mxCell id="_sq7ASWBBYEvkGENBaiG-39" value="SSR&lt;br&gt;" style="pointerEvents=1;verticalLabelPosition=middle;shadow=0;dashed=0;align=center;fillColor=#ffffff;html=1;verticalAlign=middle;strokeWidth=1;shape=mxgraph.electrical.electro-mechanical.relay_coil;fontSize=11;horizontal=1;labelPosition=center;fontColor=#000000;rotation=-90;" parent="1" vertex="1">
          <mxGeometry x="350" y="170" width="70" height="35" as="geometry" />
        </mxCell>
        <mxCell id="_sq7ASWBBYEvkGENBaiG-41" value="" style="pointerEvents=1;verticalLabelPosition=bottom;shadow=0;dashed=0;align=center;fillColor=#ffffff;html=1;verticalAlign=top;strokeWidth=1;shape=mxgraph.electrical.electro-mechanical.make_contact;fontSize=11;" parent="1" vertex="1">
          <mxGeometry x="345" y="114" width="75" height="16" as="geometry" />
        </mxCell>
        <mxCell id="_sq7ASWBBYEvkGENBaiG-43" value="" style="endArrow=none;html=1;fontSize=11;exitX=1;exitY=0;exitDx=0;exitDy=10;exitPerimeter=0;" parent="1" source="_sq7ASWBBYEvkGENBaiG-1" edge="1">
          <mxGeometry width="50" height="50" relative="1" as="geometry">
            <mxPoint x="30" y="560" as="sourcePoint" />
            <mxPoint x="210" y="180" as="targetPoint" />
          </mxGeometry>
        </mxCell>
        <mxCell id="_sq7ASWBBYEvkGENBaiG-44" value="" style="endArrow=none;html=1;fontSize=11;exitX=1;exitY=0;exitDx=0;exitDy=30;exitPerimeter=0;" parent="1" source="_sq7ASWBBYEvkGENBaiG-1" edge="1">
          <mxGeometry width="50" height="50" relative="1" as="geometry">
            <mxPoint x="100" y="670" as="sourcePoint" />
            <mxPoint x="210" y="200" as="targetPoint" />
          </mxGeometry>
        </mxCell>
        <mxCell id="_sq7ASWBBYEvkGENBaiG-45" value="" style="endArrow=none;html=1;fontSize=11;exitX=1;exitY=0;exitDx=0;exitDy=50;exitPerimeter=0;" parent="1" source="_sq7ASWBBYEvkGENBaiG-1" edge="1">
          <mxGeometry width="50" height="50" relative="1" as="geometry">
            <mxPoint x="190" y="610" as="sourcePoint" />
            <mxPoint x="210" y="220" as="targetPoint" />
          </mxGeometry>
        </mxCell>
        <mxCell id="_sq7ASWBBYEvkGENBaiG-46" value="" style="endArrow=none;html=1;fontSize=11;entryX=0.5;entryY=0;entryDx=0;entryDy=0;entryPerimeter=0;exitX=0.7;exitY=0;exitDx=0;exitDy=0;exitPerimeter=0;" parent="1" source="_sq7ASWBBYEvkGENBaiG-6" target="_sq7ASWBBYEvkGENBaiG-39" edge="1">
          <mxGeometry width="50" height="50" relative="1" as="geometry">
            <mxPoint x="30" y="560" as="sourcePoint" />
            <mxPoint x="80" y="510" as="targetPoint" />
            <Array as="points">
              <mxPoint x="334" y="188" />
            </Array>
          </mxGeometry>
        </mxCell>
        <mxCell id="_sq7ASWBBYEvkGENBaiG-51" value="" style="endArrow=none;html=1;fontSize=11;fontColor=#000000;entryX=0;entryY=0.72;entryDx=0;entryDy=0;entryPerimeter=0;exitX=1;exitY=0;exitDx=0;exitDy=110;exitPerimeter=0;" parent="1" source="_sq7ASWBBYEvkGENBaiG-1" target="_sq7ASWBBYEvkGENBaiG-6" edge="1">
          <mxGeometry width="50" height="50" relative="1" as="geometry">
            <mxPoint x="30" y="630" as="sourcePoint" />
            <mxPoint x="80" y="580" as="targetPoint" />
          </mxGeometry>
        </mxCell>
        <mxCell id="_sq7ASWBBYEvkGENBaiG-56" value="&lt;font color=&quot;#000000&quot;&gt;Heat gun heating element&lt;/font&gt;" style="pointerEvents=1;verticalLabelPosition=bottom;shadow=0;dashed=0;align=center;fillColor=#ffffff;html=1;verticalAlign=top;strokeWidth=1;shape=mxgraph.electrical.resistors.resistor_2;fontSize=11;fontColor=#FF0000;rotation=90;" parent="1" vertex="1">
          <mxGeometry x="240" y="-10.642857142857167" width="100" height="20" as="geometry" />
        </mxCell>
        <mxCell id="_sq7ASWBBYEvkGENBaiG-57" value="" style="endArrow=none;html=1;strokeColor=#000000;fontSize=11;fontColor=#FF0000;entryX=0.5;entryY=1;entryDx=0;entryDy=0;entryPerimeter=0;exitX=1;exitY=1;exitDx=0;exitDy=0;exitPerimeter=0;rounded=0;" parent="1" source="_sq7ASWBBYEvkGENBaiG-41" target="_sq7ASWBBYEvkGENBaiG-37" edge="1">
          <mxGeometry width="50" height="50" relative="1" as="geometry">
            <mxPoint x="-30" y="559.5" as="sourcePoint" />
            <mxPoint x="20" y="509.5" as="targetPoint" />
            <Array as="points">
              <mxPoint x="445" y="130.5" />
            </Array>
          </mxGeometry>
        </mxCell>
        <mxCell id="_sq7ASWBBYEvkGENBaiG-58" value="" style="endArrow=none;html=1;strokeColor=#000000;fontSize=11;fontColor=#FF0000;rounded=0;exitX=1;exitY=0.845;exitDx=0;exitDy=0;exitPerimeter=0;" parent="1" source="nAN5A21IbzPLfW9n5xh4-6" edge="1">
          <mxGeometry width="50" height="50" relative="1" as="geometry">
            <mxPoint x="290" y="-150" as="sourcePoint" />
            <mxPoint x="445" y="-167.5" as="targetPoint" />
            <Array as="points">
              <mxPoint x="290" y="-200" />
              <mxPoint x="445" y="-200" />
            </Array>
          </mxGeometry>
        </mxCell>
        <mxCell id="_sq7ASWBBYEvkGENBaiG-59" value="" style="endArrow=none;html=1;strokeColor=#000000;fontSize=11;fontColor=#FF0000;entryX=1;entryY=0.5;entryDx=0;entryDy=0;entryPerimeter=0;exitX=0;exitY=1;exitDx=0;exitDy=0;exitPerimeter=0;" parent="1" source="_sq7ASWBBYEvkGENBaiG-41" target="_sq7ASWBBYEvkGENBaiG-56" edge="1">
          <mxGeometry width="50" height="50" relative="1" as="geometry">
            <mxPoint x="-30" y="559.5" as="sourcePoint" />
            <mxPoint x="20" y="509.5" as="targetPoint" />
            <Array as="points">
              <mxPoint x="290" y="130.5" />
            </Array>
          </mxGeometry>
        </mxCell>
        <mxCell id="_sq7ASWBBYEvkGENBaiG-61" value="" style="endArrow=none;dashed=1;html=1;strokeColor=#000000;fontSize=11;fontColor=#FF0000;entryX=0.514;entryY=0.482;entryDx=0;entryDy=0;entryPerimeter=0;exitX=0.999;exitY=0.476;exitDx=0;exitDy=0;exitPerimeter=0;" parent="1" source="_sq7ASWBBYEvkGENBaiG-39" target="_sq7ASWBBYEvkGENBaiG-41" edge="1">
          <mxGeometry width="50" height="50" relative="1" as="geometry">
            <mxPoint x="190" y="130" as="sourcePoint" />
            <mxPoint x="240" y="80" as="targetPoint" />
          </mxGeometry>
        </mxCell>
        <mxCell id="_sq7ASWBBYEvkGENBaiG-62" value="" style="endArrow=none;html=1;strokeColor=#FF0000;fontSize=11;fontColor=#FF0000;entryX=0.5;entryY=1;entryDx=0;entryDy=0;entryPerimeter=0;" parent="1" target="_sq7ASWBBYEvkGENBaiG-39" edge="1">
          <mxGeometry width="50" height="50" relative="1" as="geometry">
            <mxPoint x="190" y="490" as="sourcePoint" />
            <mxPoint x="80" y="510" as="targetPoint" />
            <Array as="points">
              <mxPoint x="403" y="490" />
            </Array>
          </mxGeometry>
        </mxCell>
        <mxCell id="_sq7ASWBBYEvkGENBaiG-63" value="+" style="text;html=1;strokeColor=none;fillColor=none;align=center;verticalAlign=middle;whiteSpace=wrap;rounded=0;fontSize=11;fontColor=#000000;" parent="1" vertex="1">
          <mxGeometry x="382.5" y="170" width="40" height="20" as="geometry" />
        </mxCell>
        <mxCell id="_sq7ASWBBYEvkGENBaiG-64" value="&lt;font color=&quot;#000000&quot;&gt;IRL 540N&lt;/font&gt;" style="rounded=0;whiteSpace=wrap;html=1;fontSize=11;fontColor=#FF0000;align=center;horizontal=0;flipH=0;flipV=0;direction=west;" parent="1" vertex="1">
          <mxGeometry x="550" y="193" width="40" height="80" as="geometry" />
        </mxCell>
        <mxCell id="_sq7ASWBBYEvkGENBaiG-65" value="" style="endArrow=none;html=1;strokeColor=#000000;fontSize=11;fontColor=#FF0000;entryX=0.75;entryY=0;entryDx=0;entryDy=0;" parent="1" target="_sq7ASWBBYEvkGENBaiG-64" edge="1">
          <mxGeometry width="50" height="50" relative="1" as="geometry">
            <mxPoint x="560" y="311" as="sourcePoint" />
            <mxPoint x="575" y="301" as="targetPoint" />
          </mxGeometry>
        </mxCell>
        <mxCell id="_sq7ASWBBYEvkGENBaiG-66" value="" style="endArrow=none;html=1;strokeColor=#000000;fontSize=11;fontColor=#FF0000;entryX=0.5;entryY=0;entryDx=0;entryDy=0;" parent="1" target="_sq7ASWBBYEvkGENBaiG-64" edge="1">
          <mxGeometry width="50" height="50" relative="1" as="geometry">
            <mxPoint x="570" y="311" as="sourcePoint" />
            <mxPoint x="569.5" y="281" as="targetPoint" />
          </mxGeometry>
        </mxCell>
        <mxCell id="_sq7ASWBBYEvkGENBaiG-67" value="" style="endArrow=none;html=1;strokeColor=#000000;fontSize=11;fontColor=#FF0000;entryX=0.25;entryY=0;entryDx=0;entryDy=0;" parent="1" target="_sq7ASWBBYEvkGENBaiG-64" edge="1">
          <mxGeometry width="50" height="50" relative="1" as="geometry">
            <mxPoint x="580" y="311" as="sourcePoint" />
            <mxPoint x="580" y="293" as="targetPoint" />
          </mxGeometry>
        </mxCell>
        <mxCell id="_sq7ASWBBYEvkGENBaiG-68" value="S" style="text;html=1;strokeColor=none;fillColor=none;align=center;verticalAlign=middle;whiteSpace=wrap;rounded=0;fontSize=11;fontColor=#000000;" parent="1" vertex="1">
          <mxGeometry x="322.5" y="297.33333333333337" width="40" height="20" as="geometry" />
        </mxCell>
        <mxCell id="_sq7ASWBBYEvkGENBaiG-69" value="G D S" style="text;html=1;strokeColor=none;fillColor=none;align=center;verticalAlign=middle;whiteSpace=wrap;rounded=0;fontSize=11;fontColor=#000000;" parent="1" vertex="1">
          <mxGeometry x="550" y="306.8333333333333" width="40" height="20" as="geometry" />
        </mxCell>
        <mxCell id="_sq7ASWBBYEvkGENBaiG-70" value="G" style="text;html=1;strokeColor=none;fillColor=none;align=center;verticalAlign=middle;whiteSpace=wrap;rounded=0;fontSize=11;fontColor=#000000;" parent="1" vertex="1">
          <mxGeometry x="247.5" y="264" width="40" height="20" as="geometry" />
        </mxCell>
        <mxCell id="_sq7ASWBBYEvkGENBaiG-71" value="D" style="text;html=1;strokeColor=none;fillColor=none;align=center;verticalAlign=middle;whiteSpace=wrap;rounded=0;fontSize=11;fontColor=#000000;" parent="1" vertex="1">
          <mxGeometry x="320" y="200" width="40" height="20" as="geometry" />
        </mxCell>
        <mxCell id="_sq7ASWBBYEvkGENBaiG-72" value="-" style="text;html=1;strokeColor=none;fillColor=none;align=center;verticalAlign=middle;whiteSpace=wrap;rounded=0;fontSize=11;fontColor=#000000;" parent="1" vertex="1">
          <mxGeometry x="345" y="167.33333333333337" width="40" height="20" as="geometry" />
        </mxCell>
        <mxCell id="_sq7ASWBBYEvkGENBaiG-73" value="" style="endArrow=none;html=1;strokeColor=#000000;fontSize=11;fontColor=#000000;exitX=1;exitY=0;exitDx=0;exitDy=70;exitPerimeter=0;" parent="1" source="_sq7ASWBBYEvkGENBaiG-1" edge="1">
          <mxGeometry width="50" height="50" relative="1" as="geometry">
            <mxPoint x="177.5" y="241" as="sourcePoint" />
            <mxPoint x="210" y="240" as="targetPoint" />
          </mxGeometry>
        </mxCell>
        <mxCell id="_sq7ASWBBYEvkGENBaiG-74" value="" style="endArrow=none;html=1;strokeColor=#000000;fontSize=11;fontColor=#000000;exitX=1;exitY=0;exitDx=0;exitDy=70;exitPerimeter=0;" parent="1" edge="1">
          <mxGeometry width="50" height="50" relative="1" as="geometry">
            <mxPoint x="174.5" y="260" as="sourcePoint" />
            <mxPoint x="207" y="260" as="targetPoint" />
          </mxGeometry>
        </mxCell>
        <mxCell id="_sq7ASWBBYEvkGENBaiG-75" value="" style="endArrow=none;html=1;strokeColor=#000000;fontSize=11;fontColor=#000000;exitX=1;exitY=0;exitDx=0;exitDy=70;exitPerimeter=0;" parent="1" edge="1">
          <mxGeometry width="50" height="50" relative="1" as="geometry">
            <mxPoint x="170" y="360" as="sourcePoint" />
            <mxPoint x="202.5" y="360" as="targetPoint" />
          </mxGeometry>
        </mxCell>
        <mxCell id="nAN5A21IbzPLfW9n5xh4-5" style="edgeStyle=orthogonalEdgeStyle;rounded=0;orthogonalLoop=1;jettySize=auto;html=1;exitX=1;exitY=0.845;exitDx=0;exitDy=0;exitPerimeter=0;endArrow=none;endFill=0;" parent="1" source="nAN5A21IbzPLfW9n5xh4-1" edge="1">
          <mxGeometry relative="1" as="geometry">
            <mxPoint x="445" y="-170" as="targetPoint" />
          </mxGeometry>
        </mxCell>
        <mxCell id="nAN5A21IbzPLfW9n5xh4-1" value="Roaster on/off" style="pointerEvents=1;verticalLabelPosition=bottom;shadow=0;dashed=0;align=center;fillColor=#ffffff;html=1;verticalAlign=top;strokeWidth=1;shape=mxgraph.electrical.electro-mechanical.switch_disconnector;rotation=-90;" parent="1" vertex="1">
          <mxGeometry x="401" y="-110.17310732886904" width="75" height="19" as="geometry" />
        </mxCell>
        <mxCell id="nAN5A21IbzPLfW9n5xh4-3" value="M" style="verticalLabelPosition=middle;shadow=0;dashed=0;align=center;fillColor=#ffffff;html=1;verticalAlign=middle;strokeWidth=1;shape=ellipse;fontSize=32;fontColor=#000000;perimeter=ellipsePerimeter;" parent="1" vertex="1">
          <mxGeometry x="540" y="-50.5" width="60" height="60" as="geometry" />
        </mxCell>
        <mxCell id="nAN5A21IbzPLfW9n5xh4-6" value="Heat gun switch" style="pointerEvents=1;verticalLabelPosition=bottom;shadow=0;dashed=0;align=center;fillColor=#ffffff;html=1;verticalAlign=top;strokeWidth=1;shape=mxgraph.electrical.electro-mechanical.switch_disconnector;rotation=-90;" parent="1" vertex="1">
          <mxGeometry x="246" y="-120" width="75" height="19" as="geometry" />
        </mxCell>
        <mxCell id="nAN5A21IbzPLfW9n5xh4-7" value="" style="endArrow=none;html=1;rounded=0;entryX=0.5;entryY=0;entryDx=0;entryDy=0;" parent="1" target="nAN5A21IbzPLfW9n5xh4-3" edge="1">
          <mxGeometry width="50" height="50" relative="1" as="geometry">
            <mxPoint x="445" y="-200" as="sourcePoint" />
            <mxPoint x="600" y="-200" as="targetPoint" />
            <Array as="points">
              <mxPoint x="570" y="-200" />
            </Array>
          </mxGeometry>
        </mxCell>
        <mxCell id="nAN5A21IbzPLfW9n5xh4-9" value="Bread machine motor" style="text;html=1;strokeColor=none;fillColor=none;align=center;verticalAlign=middle;whiteSpace=wrap;rounded=0;" parent="1" vertex="1">
          <mxGeometry x="610" y="-30.5" width="40" height="20" as="geometry" />
        </mxCell>
        <mxCell id="nAN5A21IbzPLfW9n5xh4-10" value="" style="endArrow=none;html=1;entryX=0.5;entryY=1;entryDx=0;entryDy=0;rounded=0;" parent="1" target="nAN5A21IbzPLfW9n5xh4-3" edge="1">
          <mxGeometry width="50" height="50" relative="1" as="geometry">
            <mxPoint x="440" y="130" as="sourcePoint" />
            <mxPoint x="580" y="60" as="targetPoint" />
            <Array as="points">
              <mxPoint x="570" y="130" />
            </Array>
          </mxGeometry>
        </mxCell>
        <mxCell id="nAN5A21IbzPLfW9n5xh4-12" value="The MOSFET used in this project - IRL 540N, with pin labels" style="text;html=1;strokeColor=none;fillColor=none;align=left;verticalAlign=middle;whiteSpace=wrap;rounded=0;" parent="1" vertex="1">
          <mxGeometry x="600" y="190" width="120" height="50" as="geometry" />
        </mxCell>
        <mxCell id="nAN5A21IbzPLfW9n5xh4-17" style="edgeStyle=orthogonalEdgeStyle;rounded=0;orthogonalLoop=1;jettySize=auto;html=1;exitX=0.5;exitY=1;exitDx=0;exitDy=0;endArrow=none;endFill=0;" parent="1" source="nAN5A21IbzPLfW9n5xh4-13" edge="1">
          <mxGeometry relative="1" as="geometry">
            <mxPoint x="450" y="100" as="targetPoint" />
            <Array as="points">
              <mxPoint x="169" y="100" />
            </Array>
          </mxGeometry>
        </mxCell>
        <mxCell id="nAN5A21IbzPLfW9n5xh4-13" value="M" style="verticalLabelPosition=middle;shadow=0;dashed=0;align=center;fillColor=#ffffff;html=1;verticalAlign=middle;strokeWidth=1;shape=ellipse;fontSize=32;fontColor=#000000;perimeter=ellipsePerimeter;" parent="1" vertex="1">
          <mxGeometry x="139.13420177641365" y="-30.5" width="60" height="60" as="geometry" />
        </mxCell>
        <mxCell id="nAN5A21IbzPLfW9n5xh4-14" value="" style="endArrow=none;html=1;entryX=0;entryY=0.845;entryDx=0;entryDy=0;entryPerimeter=0;exitX=0;exitY=0.5;exitDx=0;exitDy=0;exitPerimeter=0;" parent="1" source="_sq7ASWBBYEvkGENBaiG-56" target="nAN5A21IbzPLfW9n5xh4-6" edge="1">
          <mxGeometry width="50" height="50" relative="1" as="geometry">
            <mxPoint x="200" y="-30" as="sourcePoint" />
            <mxPoint x="250" y="-80" as="targetPoint" />
          </mxGeometry>
        </mxCell>
        <mxCell id="nAN5A21IbzPLfW9n5xh4-15" value="" style="endArrow=none;html=1;entryX=0;entryY=0.845;entryDx=0;entryDy=0;entryPerimeter=0;exitX=0.5;exitY=0;exitDx=0;exitDy=0;" parent="1" source="nAN5A21IbzPLfW9n5xh4-13" target="nAN5A21IbzPLfW9n5xh4-6" edge="1">
          <mxGeometry width="50" height="50" relative="1" as="geometry">
            <mxPoint x="160" y="-73" as="sourcePoint" />
            <mxPoint x="160" y="-50" as="targetPoint" />
            <Array as="points">
              <mxPoint x="170" y="-73" />
            </Array>
          </mxGeometry>
        </mxCell>
        <mxCell id="nAN5A21IbzPLfW9n5xh4-16" value="Heat gun fan" style="text;html=1;strokeColor=none;fillColor=none;align=center;verticalAlign=middle;whiteSpace=wrap;rounded=0;" parent="1" vertex="1">
          <mxGeometry x="99" y="-11" width="40" height="20" as="geometry" />
        </mxCell>
      </root>
    </mxGraphModel>
  </diagram>
</mxfile>
